<svg width="93" height="79" viewBox="0 0 93 79" fill="none" xmlns="http://www.w3.org/2000/svg">
<path d="M86.2989 39.3878L46.5408 79L13.7728 46.3611L6.78276 39.3878C2.43983 35.0608 -6.47147e-08 29.1922 0 23.0728C6.47147e-08 16.9535 2.43983 11.0849 6.78276 6.75788C11.1257 2.43088 17.016 6.44773e-08 23.1578 0C29.2996 -6.44773e-08 35.1899 2.43088 39.5329 6.75788L46.5318 13.7312L53.5308 6.75788C57.8803 2.46092 63.7611 0.0555023 69.8863 0.0680053C76.0114 0.0805083 81.8822 2.50991 86.214 6.82459C90.5458 11.1393 92.9857 16.9879 92.9999 23.0906C93.0142 29.1933 90.6015 35.0531 86.2899 39.3878H86.2989Z" fill="#DB3A46"/>
<path d="M46 79L13.6117 46.2932L6.70273 39.3054C3.66483 36.2364 1.54346 32.3656 0.581297 28.1358C-0.380868 23.906 -0.144972 19.4881 1.26199 15.3875C2.66896 11.2868 5.19017 7.6689 8.53724 4.94772C11.8843 2.22653 15.9221 0.511912 20.1886 0C18.5986 16.9775 19.8963 49.6082 46 79Z" fill="#AF3542"/>
<path d="M46.1031 50C45.2091 49.9985 44.3521 49.6532 43.7189 49.0395L31.9866 37.6318C31.6738 37.3277 31.4257 36.9666 31.2564 36.5692C31.0871 36.1718 31 35.7459 31 35.3158C31 34.8857 31.0871 34.4598 31.2564 34.0624C31.4257 33.665 31.6738 33.3039 31.9866 32.9998C32.2994 32.6956 32.6708 32.4544 33.0795 32.2898C33.4882 32.1252 33.9262 32.0404 34.3686 32.0404C34.8109 32.0404 35.249 32.1252 35.6577 32.2898C36.0663 32.4544 36.4377 32.6956 36.7505 32.9998L45.7304 41.7313L61.7596 20.5661C62.0035 20.1783 62.3278 19.8441 62.7119 19.5848C63.0959 19.3255 63.5313 19.1468 63.9902 19.0601C64.4492 18.9734 64.9217 18.9806 65.3777 19.0812C65.8336 19.1818 66.263 19.3736 66.6385 19.6444C67.0141 19.9152 67.3275 20.2591 67.5589 20.6541C67.7902 21.0492 67.9344 21.4868 67.9823 21.939C68.0302 22.3912 67.9807 22.8481 67.837 23.2807C67.6933 23.7133 67.4585 24.1121 67.1476 24.4516L48.8105 48.6597C48.5227 49.0375 48.1541 49.3501 47.7301 49.5762C47.3061 49.8023 46.8369 49.9364 46.3545 49.9694L46.1031 50Z" fill="#FDFCFD"/>
</svg>
