<svg width="512" height="512" viewBox="0 0 512 512" fill="none" xmlns="http://www.w3.org/2000/svg">
<g clip-path="url(#clip0)">
<path d="M256 512C394.071 512 506 400.071 506 262C506 123.929 394.071 12 256 12C117.929 12 6 123.929 6 262C6 400.071 117.929 512 256 512Z" fill="#8ACCFD"/>
<path d="M386.2 140.88V307.88C386.193 340.971 373.597 372.819 350.968 396.962C328.338 421.105 297.371 435.734 264.35 437.88C261.56 438.07 258.73 438.16 255.88 438.16C221.32 438.16 188.175 424.431 163.737 399.993C139.299 375.555 125.57 342.41 125.57 307.85V140.85C125.57 133.527 127.013 126.275 129.815 119.509C132.618 112.743 136.726 106.596 141.905 101.418C147.084 96.2403 153.232 92.1332 159.999 89.3316C166.765 86.53 174.017 85.0887 181.34 85.09H330.43C337.756 85.0887 345.01 86.531 351.778 89.3345C358.547 92.138 364.696 96.2477 369.875 101.429C375.055 106.61 379.162 112.761 381.963 119.53C384.764 126.299 386.204 133.554 386.2 140.88Z" fill="#AFCCD9"/>
<path d="M386.2 140.88V307.88C386.193 340.971 373.597 372.819 350.968 396.962C328.338 421.105 297.371 435.734 264.35 437.88C231.332 435.732 200.368 421.101 177.742 396.958C155.116 372.815 142.524 340.968 142.52 307.88V140.88C142.519 133.558 143.96 126.307 146.761 119.542C149.562 112.777 153.668 106.63 158.845 101.452C164.022 96.2744 170.169 92.167 176.933 89.3647C183.698 86.5623 190.948 85.12 198.27 85.12H330.43C337.753 85.1187 345.005 86.56 351.771 89.3616C358.538 92.1632 364.686 96.2703 369.865 101.448C375.044 106.626 379.152 112.773 381.955 119.539C384.757 126.305 386.2 133.557 386.2 140.88Z" fill="#C2E2F5"/>
<path d="M360 282.18V340C360 378.37 321.69 409.48 274.42 409.48H240.42C193.14 409.48 154.82 378.37 154.82 340V282.18C154.82 265.75 171.22 252.43 191.46 252.43H323.39C343.61 252.43 360 265.75 360 282.18Z" fill="#AD3542"/>
<path d="M255.88 95.28C280.379 95.28 300.24 75.4193 300.24 50.92C300.24 26.4206 280.379 6.56 255.88 6.56C231.381 6.56 211.52 26.4206 211.52 50.92C211.52 75.4193 231.381 95.28 255.88 95.28Z" fill="#C2E2F5"/>
<path d="M304.11 115.39H210.73C204.914 115.39 200.2 120.104 200.2 125.92V190.98C200.2 196.796 204.914 201.51 210.73 201.51H304.11C309.926 201.51 314.64 196.796 314.64 190.98V125.92C314.64 120.104 309.926 115.39 304.11 115.39Z" fill="white"/>
<path d="M237 166.94C237 169.626 237.529 172.285 238.557 174.766C239.584 177.247 241.091 179.501 242.99 181.4C244.889 183.299 247.143 184.806 249.624 185.833C252.105 186.861 254.764 187.39 257.45 187.39C260.136 187.39 262.795 186.861 265.276 185.833C267.757 184.806 270.011 183.299 271.91 181.4C273.809 179.501 275.316 177.247 276.343 174.766C277.371 172.285 277.9 169.626 277.9 166.94C277.9 155.65 257.45 129.52 257.45 129.52C257.45 129.52 237 155.65 237 166.94Z" fill="#D93A46"/>
<path d="M255.88 76.8C270.173 76.8 281.76 65.2131 281.76 50.92C281.76 36.6269 270.173 25.04 255.88 25.04C241.587 25.04 230 36.6269 230 50.92C230 65.2131 241.587 76.8 255.88 76.8Z" fill="#AFCCD9"/>
<path d="M262.13 409.51V511.93C260.09 511.977 258.047 512 256 512C253.953 512 251.833 511.973 249.64 511.92V409.51H262.13Z" fill="#D93A46"/>
<path d="M360 247.23V340C360 378.38 321.68 409.48 274.42 409.48H271.22C223.96 409.48 185.64 378.38 185.64 340V282.17C185.642 280.965 185.736 279.761 185.92 278.57L154.82 281.12C154.82 281.12 153.99 236.43 190.49 233.93C190.49 233.93 194.42 233.48 200.2 233.41C210.51 233.29 226.69 234.41 236.96 241.41C236.96 241.41 252.15 250.91 272.82 241.41C272.82 241.41 291.98 227.33 315.82 236.02C322.319 238.309 329.43 238.149 335.82 235.57C338.737 234.351 341.896 233.824 345.05 234.031C348.204 234.237 351.267 235.171 354 236.76C355.836 237.82 357.358 239.347 358.412 241.186C359.466 243.025 360.014 245.11 360 247.23Z" fill="#D93A46"/>
<path d="M185.93 278.57L154.83 281.12C154.83 281.12 154 236.43 190.5 233.93C190.5 233.93 194.43 233.48 200.21 233.41C185.56 248.49 185.93 278.57 185.93 278.57Z" fill="#AD3542"/>
<path d="M358.34 154.1H328.33C323.729 154.1 320 157.829 320 162.43V162.44C320 167.041 323.729 170.77 328.33 170.77H358.34C362.941 170.77 366.67 167.041 366.67 162.44V162.43C366.67 157.829 362.941 154.1 358.34 154.1Z" fill="white"/>
<path d="M358.34 187.39H344.33C339.729 187.39 336 191.119 336 195.72V195.73C336 200.331 339.729 204.06 344.33 204.06H358.34C362.941 204.06 366.67 200.331 366.67 195.73V195.72C366.67 191.119 362.941 187.39 358.34 187.39Z" fill="white"/>
<path d="M358.34 221.43H328.33C323.729 221.43 320 225.159 320 229.76V229.77C320 234.371 323.729 238.1 328.33 238.1H358.34C362.941 238.1 366.67 234.371 366.67 229.77V229.76C366.67 225.159 362.941 221.43 358.34 221.43Z" fill="white"/>
<path d="M358.34 254.72H344.33C339.729 254.72 336 258.449 336 263.05V263.06C336 267.661 339.729 271.39 344.33 271.39H358.34C362.941 271.39 366.67 267.661 366.67 263.06V263.05C366.67 258.449 362.941 254.72 358.34 254.72Z" fill="white"/>
<path d="M358.34 289.69H328.33C323.729 289.69 320 293.419 320 298.02V298.03C320 302.631 323.729 306.36 328.33 306.36H358.34C362.941 306.36 366.67 302.631 366.67 298.03V298.02C366.67 293.419 362.941 289.69 358.34 289.69Z" fill="white"/>
<path d="M358.34 322.98H344.33C339.729 322.98 336 326.709 336 331.31V331.32C336 335.921 339.729 339.65 344.33 339.65H358.34C362.941 339.65 366.67 335.921 366.67 331.32V331.31C366.67 326.709 362.941 322.98 358.34 322.98Z" fill="white"/>
<path d="M236.97 292.72C243.769 292.72 249.28 287.209 249.28 280.41C249.28 273.611 243.769 268.1 236.97 268.1C230.171 268.1 224.66 273.611 224.66 280.41C224.66 287.209 230.171 292.72 236.97 292.72Z" fill="#D65366"/>
<path d="M289.35 310.34C296.149 310.34 301.66 304.829 301.66 298.03C301.66 291.231 296.149 285.72 289.35 285.72C282.551 285.72 277.04 291.231 277.04 298.03C277.04 304.829 282.551 310.34 289.35 310.34Z" fill="#D65366"/>
<path d="M264.36 338.9C268.552 338.9 271.95 335.502 271.95 331.31C271.95 327.118 268.552 323.72 264.36 323.72C260.168 323.72 256.77 327.118 256.77 331.31C256.77 335.502 260.168 338.9 264.36 338.9Z" fill="#D65366"/>
<path d="M236.97 373.02C241.162 373.02 244.56 369.622 244.56 365.43C244.56 361.238 241.162 357.84 236.97 357.84C232.778 357.84 229.38 361.238 229.38 365.43C229.38 369.622 232.778 373.02 236.97 373.02Z" fill="#D65366"/>
<path d="M300.25 388.2C304.442 388.2 307.84 384.802 307.84 380.61C307.84 376.418 304.442 373.02 300.25 373.02C296.058 373.02 292.66 376.418 292.66 380.61C292.66 384.802 296.058 388.2 300.25 388.2Z" fill="#D65366"/>
<path d="M491.86 91.54L403.13 180.27L330 107.16L314.4 91.54C304.708 81.8477 299.263 68.702 299.263 54.995C299.263 41.288 304.708 28.1423 314.4 18.45C324.092 8.75766 337.238 3.31256 350.945 3.31256C364.652 3.31256 377.798 8.75766 387.49 18.45L403.11 34.07L418.73 18.45C428.437 8.82493 441.561 3.43688 455.231 3.46489C468.901 3.4929 482.003 8.93468 491.671 18.5994C501.338 28.2642 506.783 41.3649 506.815 55.0347C506.847 68.7046 501.462 81.8304 491.84 91.54H491.86Z" fill="#DB3A46"/>
<path d="M403.13 180.27L330 107.16L314.4 91.54C307.541 84.6797 302.751 76.0273 300.578 66.5724C298.406 57.1176 298.938 47.2422 302.115 38.0758C305.292 28.9095 310.985 20.8224 318.542 14.7397C326.1 8.65699 335.216 4.82428 344.85 3.67999C341.26 41.63 344.19 114.57 403.13 180.27Z" fill="#AF3542"/>
<path d="M294.33 463V473C294.331 473.64 294.206 474.275 293.962 474.867C293.718 475.459 293.36 475.997 292.907 476.45C292.455 476.903 291.917 477.263 291.326 477.508C290.734 477.754 290.1 477.88 289.46 477.88H283.71C282.417 477.88 281.178 478.393 280.263 479.306C279.348 480.219 278.833 481.457 278.83 482.75V511C273.31 511.5 267.743 511.833 262.13 512C260.09 512.047 258.047 512.07 256 512.07C253.953 512.07 251.833 512.043 249.64 511.99L246.83 511.91C242.917 511.763 239.03 511.53 235.17 511.21V482.72C235.167 481.427 234.652 480.189 233.737 479.276C232.822 478.363 231.583 477.85 230.29 477.85H224.54C223.9 477.85 223.266 477.724 222.674 477.478C222.083 477.233 221.545 476.873 221.093 476.42C220.64 475.967 220.282 475.429 220.038 474.837C219.794 474.245 219.669 473.61 219.67 472.97V463C219.669 462.36 219.794 461.725 220.038 461.133C220.282 460.541 220.64 460.003 221.093 459.55C221.545 459.097 222.083 458.737 222.674 458.492C223.266 458.246 223.9 458.12 224.54 458.12H289.46C290.1 458.12 290.734 458.246 291.326 458.492C291.917 458.737 292.455 459.097 292.907 459.55C293.36 460.003 293.718 460.541 293.962 461.133C294.206 461.725 294.331 462.36 294.33 463Z" fill="#D5D2D3"/>
<path d="M294.33 463V473C294.331 473.64 294.206 474.275 293.962 474.867C293.718 475.459 293.359 475.997 292.907 476.45C292.455 476.903 291.917 477.263 291.326 477.508C290.734 477.754 290.1 477.88 289.46 477.88H283.71C282.417 477.88 281.178 478.393 280.263 479.306C279.348 480.219 278.833 481.457 278.83 482.75V511C273.31 511.5 267.743 511.833 262.13 512C260.09 512.047 258.047 512.07 256 512.07C253.953 512.07 251.833 512.043 249.64 511.99L246.83 511.91V482.72C246.83 481.428 246.317 480.19 245.404 479.276C244.49 478.363 243.252 477.85 241.96 477.85H236.21C235.57 477.85 234.936 477.724 234.344 477.478C233.752 477.233 233.215 476.873 232.763 476.42C232.31 475.967 231.952 475.429 231.708 474.837C231.464 474.245 231.339 473.61 231.34 472.97V463C231.339 462.36 231.464 461.725 231.708 461.133C231.952 460.541 232.31 460.003 232.763 459.55C233.215 459.097 233.752 458.737 234.344 458.492C234.936 458.246 235.57 458.12 236.21 458.12H289.46C290.1 458.12 290.734 458.246 291.326 458.492C291.917 458.737 292.455 459.097 292.907 459.55C293.359 460.003 293.718 460.541 293.962 461.133C294.206 461.725 294.331 462.36 294.33 463Z" fill="white"/>
<path d="M403.13 116.07C401.139 116.067 399.23 115.276 397.82 113.87L371.69 87.74C370.993 87.0433 370.441 86.2163 370.064 85.306C369.687 84.3958 369.493 83.4202 369.493 82.435C369.493 81.4498 369.687 80.4742 370.064 79.564C370.441 78.6537 370.993 77.8267 371.69 77.13C372.387 76.4333 373.214 75.8807 374.124 75.5037C375.034 75.1267 376.01 74.9326 376.995 74.9326C377.98 74.9326 378.956 75.1267 379.866 75.5037C380.776 75.8807 381.603 76.4333 382.3 77.13L402.3 97.13L438 48.65C438.543 47.7616 439.265 46.9961 440.121 46.4022C440.976 45.8083 441.946 45.399 442.968 45.2004C443.99 45.0018 445.043 45.0182 446.058 45.2486C447.074 45.479 448.03 45.9184 448.866 46.5387C449.703 47.159 450.401 47.9467 450.916 48.8516C451.431 49.7565 451.752 50.7588 451.859 51.7946C451.966 52.8304 451.855 53.8771 451.535 54.868C451.215 55.8589 450.692 56.7723 450 57.55L409.16 113C408.519 113.865 407.698 114.581 406.754 115.099C405.809 115.617 404.764 115.924 403.69 116L403.13 116.07Z" fill="#FDFCFD"/>
</g>
<defs>
<clipPath id="clip0">
<rect width="512" height="512" fill="white"/>
</clipPath>
</defs>
</svg>
